# Blender v2.77 (sub 0) OBJ File: ''
# www.blender.org
mtllib collisions_smallHouse1.mtl
o Cube.001
v -3.449111 0.048974 5.017522
v -3.449111 0.048976 -4.451068
v -4.346775 -2.560060 -5.004364
v -4.346775 -2.560062 5.751128
v 0.595912 0.048976 -4.451068
v 3.359808 0.048976 -4.451068
v 4.330832 -2.560060 -5.004364
v 0.808393 -2.560060 -5.004364
v 3.359808 0.048974 5.017522
v 4.330832 -2.560062 5.751128
v -1.264467 0.048974 5.017522
v -1.562563 -2.560062 5.751128
v 0.808393 -2.560062 5.751128
v -1.264468 3.291328 5.017522
v -1.264467 3.291330 -4.451067
v -3.449111 3.291330 -4.451067
v -3.449111 3.291328 5.017522
v -1.264468 2.705047 5.017522
v -3.449111 2.705047 5.017522
v 3.359808 2.705049 -4.451067
v 3.359808 2.705047 5.017522
v 0.595912 2.705049 -4.451067
v -3.449111 2.705049 -4.451067
v 0.595912 2.705047 5.017522
v 0.595912 0.048974 5.017522
v 3.359808 3.291328 5.017522
v 3.359808 3.291330 -4.451067
v 0.595912 3.291330 -4.451067
v 0.595912 3.291328 5.017522
v -1.562563 -2.560060 -5.004364
v -1.264468 0.048976 -4.451068
v -1.264467 2.705049 -4.451067
v -1.849254 0.118234 -4.215990
v 1.019607 0.118234 -4.215990
v 1.019607 -1.100380 -7.016712
v -1.849254 -1.100380 -7.016712
v 1.019607 -0.627473 -4.215990
v 1.019607 -1.846087 -7.016713
v -1.849254 -1.846087 -7.016713
v -1.849254 -0.627473 -4.215990
vn -0.9456 0.3253 0.0000
vn 0.0000 0.2075 -0.9782
vn 0.9372 0.3488 0.0000
vn 0.0000 0.2707 0.9627
vn 0.0000 -1.0000 -0.0000
vn 0.0000 1.0000 0.0000
vn 0.0000 -0.0000 1.0000
vn 1.0000 0.0000 0.0000
vn 0.0000 0.0000 -1.0000
vn -1.0000 0.0000 0.0000
vn 0.0000 0.9170 -0.3990
usemtl None.001
s 1
f 1//1 2//1 3//1 4//1
f 5//2 6//2 7//2 8//2
f 6//3 9//3 10//3 7//3
f 11//4 1//4 4//4 12//4
f 13//5 8//5 7//5 10//5
f 14//6 15//6 16//6 17//6
f 18//7 19//7 1//7 11//7
f 20//8 21//8 9//8 6//8
f 22//9 20//9 6//9 5//9
f 19//10 23//10 2//10 1//10
f 21//7 24//7 25//7 9//7
f 26//6 27//6 28//6 29//6
f 12//5 30//5 8//5 13//5
f 9//4 25//4 13//4 10//4
f 31//2 5//2 8//2 30//2
f 2//2 31//2 30//2 3//2
f 4//5 3//5 30//5 12//5
f 23//9 32//9 31//9 2//9
f 24//7 18//7 11//7 25//7
f 29//6 28//6 15//6 14//6
f 25//4 11//4 12//4 13//4
f 29//7 14//7 18//7 24//7
f 16//9 15//9 32//9 23//9
f 26//7 29//7 24//7 21//7
f 15//9 28//9 22//9 32//9
f 17//10 16//10 23//10 19//10
f 28//9 27//9 20//9 22//9
f 27//8 26//8 21//8 20//8
f 14//7 17//7 19//7 18//7
f 6//5 9//5 1//5 2//5
f 33//11 34//11 35//11 36//11
f 35//8 34//8 37//8 38//8
f 33//10 36//10 39//10 40//10
